<svg id="Layer_1" enable-background="new 0 0 511.499 511.499" height="512" viewBox="0 0 511.499 511.499" width="512" xmlns="http://www.w3.org/2000/svg"><g><path d="m457.049 497.108-168.894-225.807c-.559 1.231-1.192 2.444-1.919 3.626-2.647 4.303-6.136 7.773-10.123 10.328l166.521 222.635c1.768 2.363 4.474 3.61 7.214 3.61 1.875 0 3.767-.584 5.384-1.793 3.981-2.978 4.794-8.618 1.817-12.599z"/><path d="m269.265 238.471-64.573-39.726-16.135-46.323 21.584 35.514 64.004 39.376 35.652 8.973c10.923 2.752 22.049-3.867 24.808-14.831 2.755-10.946-3.885-22.053-14.832-24.809l-70.235-17.677-27.417-31.582.554-8.289c1.115-16.674-11.498-31.096-28.173-32.21l-53.841-3.6c-16.674-1.115-31.095 11.499-32.21 28.173l-10.063 154.923s2.921 58.825 4.333 87.217l-47.782 103.051c-5.698 12.288-.355 26.869 11.933 32.566 12.286 5.698 26.869.356 32.567-11.933l50.329-108.544c1.673-3.607 2.443-7.566 2.245-11.538l-4.363-87.527 11.056.739 27.138 80.702 10.299 117.982c1.179 13.506 13.086 23.481 26.565 22.3 13.494-1.178 23.478-13.071 22.3-26.565l-10.554-120.896c-.169-1.935-.567-3.843-1.187-5.685l-21.622-64.299 2.499-27.241-43.39-26.694c-1.834-1.611-12.093-4.963-13.662-16.991l-7.138-57.162 18.528 53.195c1.548 4.444 4.583 8.219 8.591 10.685l70.771 43.539c9.572 5.888 22.176 2.958 28.117-6.698 5.917-9.612 2.918-22.2-6.696-28.115z"/><path d="m174.688 89.488c24.683 1.651 46.031-17.021 47.682-41.705 1.65-24.684-17.021-46.031-41.705-47.682-24.683-1.65-46.031 17.021-47.682 41.705s17.021 46.031 41.705 47.682z"/></g></svg>